<?xml version="1.0" standalone="no"?><!DOCTYPE svg PUBLIC "-//W3C//DTD SVG 1.1//EN" "http://www.w3.org/Graphics/SVG/1.1/DTD/svg11.dtd"><svg t="1782807137018" class="icon" viewBox="0 0 1024 1024" version="1.1" xmlns="http://www.w3.org/2000/svg" p-id="7524" xmlns:xlink="http://www.w3.org/1999/xlink" width="200" height="200"><path d="M208.894 571.899c50.567 7.826 101.135 17.458 151.703 26.488 18.662 3.612 34.314 13.846 47.558 28.294 30.1 33.11 61.404 65.016 90.902 98.126 6.02 6.622 9.632 16.856 10.836 25.886 1.806 11.438 1.204 24.08 0 35.517-1.204 9.03-3.612 18.662-8.428 25.886-31.304 44.548-63.812 89.096-95.116 133.644-12.04 16.856-27.692 26.488-46.354 22.876-34.916-6.622-69.832-15.652-104.145-24.682-17.458-4.816-33.712-13.244-51.17-18.662-42.14-14.448-68.026-61.404-68.628-106.554V630.293c0-42.742 33.712-64.414 72.842-58.394z m587.55-29.498c11.438 0.602 22.876 1.806 33.712 4.816 14.448 3.612 24.682 13.244 26.488 29.498 1.204 15.05 1.806 30.702 0.602 45.752 0 4.214-6.622 9.632-10.836 10.836-46.354 9.632-93.31 18.662-140.265 27.692-25.284 4.816-34.314 15.652-34.916 42.14v83.075c0.602 23.478 9.03 31.304 31.304 28.294 14.448-1.806 28.896-6.02 43.344-9.03 12.04-3.01 14.448-12.642 12.642-22.876-2.408-12.04-11.438-6.02-17.458-4.816-8.428 1.204-16.856 4.214-25.284 5.418-9.03 1.806-13.846-1.806-13.846-11.438v-59.597c0-9.03 4.214-14.448 13.244-16.254 41.538-8.428 83.075-17.458 124.613-25.886 15.05-3.01 17.458 0 17.458 16.254v120.4c0 33.11-13.846 51.771-44.548 58.995-64.413 15.652-129.43 28.294-193.241 46.354-45.752 12.642-86.688 0.602-127.624-15.05-2.408-0.602-3.612-2.408-7.826-5.418 16.254-22.876 31.304-44.548 46.956-65.016 9.632-12.04 10.836-19.264 13.846-40.936 3.01-21.671 3.01-21.671 0-40.333-3.01-18.06-5.418-31.304-17.458-43.344-29.498-30.702-58.394-61.404-87.29-92.106-6.622-7.224-17.458-12.04-12.04-25.886 5.418-13.846 15.652-22.876 29.498-24.682 18.06-2.408 36.12-4.214 54.18-6.02 61.404-5.418 123.41-12.642 184.814-16.254 33.11-2.408 66.22 3.01 99.931 5.418zM199.262 664.005a6940.167 6940.167 0 0 0 0 158.325c0 12.642 4.214 24.08 16.254 30.702 35.518 19.866 74.647 28.896 114.38 34.916 14.447 2.408 19.865-16.254 20.467-31.304v-150.5c-0.602-19.263-3.612-34.313-21.672-38.527-36.12-8.428-72.24-15.652-108.961-22.274-15.05-2.408-20.468 3.01-20.468 18.662z m393.105-491.833c10.234 18.06 17.458 37.926 25.284 55.986 15.652-12.642 30.1-27.09 46.956-37.324 72.24-42.14 161.335-15.05 199.261 62.608 31.906 64.413 31.906 128.827-10.234 189.027-29.498 41.538-72.842 59.598-121.001 63.21-81.27 5.418-162.54 10.234-243.81 15.652-19.866 1.204-39.732 3.612-59.598 4.816-62.006 3.01-114.982-19.264-155.918-66.22-70.433-80.066-82.473-192.64-30.1-286.551 37.324-66.822 93.31-105.952 169.764-107.758 80.066-2.408 139.062 36.722 179.396 106.554z m-166.152 7.826c-76.454 31.906-98.728 139.663-43.344 206.485 33.712 40.936 87.892 45.752 127.022 10.836 29.498-26.488 43.344-60.2 43.344-108.962 0-22.274-6.02-44.547-21.672-68.627-22.876-37.324-69.832-54.782-105.35-39.732z m302.806 83.677c-40.936 28.896-48.762 93.31-16.856 132.44 21.07 25.886 50.568 29.498 77.657 10.234 24.682-17.458 32.508-43.344 36.12-80.668-4.214-10.234-8.428-28.896-18.06-43.946-18.662-28.895-53.577-36.12-78.861-18.06z" fill="#FF7A00" p-id="7525"></path></svg>