<?xml version="1.0" standalone="no"?><!DOCTYPE svg PUBLIC "-//W3C//DTD SVG 1.1//EN" "http://www.w3.org/Graphics/SVG/1.1/DTD/svg11.dtd"><svg t="1783731286934" class="icon" viewBox="0 0 1024 1024" version="1.1" xmlns="http://www.w3.org/2000/svg" p-id="5256" xmlns:xlink="http://www.w3.org/1999/xlink" width="200" height="200"><path d="M928 0c19.2 0 32 12.8 32 32v960c0 19.2-12.8 32-32 32H96c-19.2 0-32-12.8-32-32V32C64 12.8 76.8 0 96 0h832m0 0H96C76.8 0 64 12.8 64 32v960c0 19.2 12.8 32 32 32h832c19.2 0 32-12.8 32-32V32c0-19.2-12.8-32-32-32z" fill="#FF0000" p-id="5257"></path><path d="M992 64c19.2 0 32 12.8 32 32v832c0 19.2-12.8 32-32 32H32c-19.2 0-32-12.8-32-32V96c0-19.2 12.8-32 32-32h960m0 0H32C12.8 64 0 76.8 0 96v832c0 19.2 12.8 32 32 32h960c19.2 0 32-12.8 32-32V96c0-19.2-12.8-32-32-32z" fill="#FF0000" p-id="5258"></path><path d="M960 32c19.2 0 32 12.8 32 32v896c0 19.2-12.8 32-32 32H64c-19.2 0-32-12.8-32-32V64c0-19.2 12.8-32 32-32h896m0 0H64c-19.2 0-32 12.8-32 32v896c0 19.2 12.8 32 32 32h896c19.2 0 32-12.8 32-32V64c0-19.2-12.8-32-32-32z" p-id="5259"></path><path d="M960 0c32 0 64 25.6 64 64v896c0 32-25.6 64-64 64H64c-32 0-64-25.6-64-64V64C0 32 25.6 0 64 0h896m0 0H64C25.6 0 0 25.6 0 64v896c0 38.4 25.6 64 64 64h896c38.4 0 64-25.6 64-64V64c0-38.4-25.6-64-64-64z" p-id="5260"></path><path d="M512 0c281.6 0 512 230.4 512 512s-230.4 512-512 512S0 793.6 0 512 230.4 0 512 0m0 0C230.4 0 0 230.4 0 512s230.4 512 512 512 512-230.4 512-512S793.6 0 512 0z" p-id="5261"></path><path d="M512 192c179.2 0 320 140.8 320 320S691.2 832 512 832 192 691.2 192 512s140.8-320 320-320m0 0c-179.2 0-320 140.8-320 320s140.8 320 320 320 320-140.8 320-320-140.8-320-320-320z" p-id="5262"></path><path d="M512 288c121.6 0 224 102.4 224 224S633.6 736 512 736 288 633.6 288 512s102.4-224 224-224m0 0c-121.6 0-224 102.4-224 224s102.4 224 224 224 224-102.4 224-224-102.4-224-224-224z" p-id="5263"></path><path d="M832 1024H192C83.2 1024 0 940.8 0 832V192C0 83.2 83.2 0 192 0h640c108.8 0 192 83.2 192 192v640c0 108.8-83.2 192-192 192z" fill="#F40209" p-id="5264"></path><path d="M262.4 160c6.4-6.4 19.2-12.8 25.6-19.2v281.6c-38.4-32-83.2-64-121.6-89.6-25.6-19.2-44.8-38.4-70.4-57.6 57.6-38.4 108.8-76.8 166.4-115.2z m-57.6 70.4v19.2c0 6.4 6.4 19.2 0 25.6-6.4 6.4-12.8 19.2-12.8 32 0 6.4-6.4 12.8 0 12.8h12.8c6.4 0 6.4 6.4 12.8 6.4h25.6c6.4 0 6.4 0 6.4-6.4h12.8c6.4-6.4 6.4-12.8 0-12.8-6.4-12.8-12.8-25.6-19.2-32-6.4-12.8 6.4-19.2 0-32v-12.8h-6.4c0 6.4-6.4 12.8-12.8 12.8s-12.8-6.4-19.2-12.8c6.4 0 0 0 0 0z m96-89.6c25.6 19.2 51.2 38.4 76.8 51.2l121.6 89.6c0 6.4-6.4 6.4-12.8 12.8-64 44.8-121.6 83.2-185.6 128V140.8zM320 249.6c6.4 6.4 12.8 12.8 12.8 19.2l6.4-6.4V320h64v-57.6l6.4 6.4c6.4-6.4 12.8-12.8 12.8-19.2-6.4-6.4-19.2-12.8-32-19.2 0 6.4-6.4 12.8-19.2 12.8-6.4 0-12.8-6.4-12.8-12.8L320 249.6z m198.4 32c64-44.8 134.4-96 198.4-140.8V416c-64-38.4-128-89.6-198.4-134.4z m108.8-51.2c0 12.8-6.4 25.6 0 38.4 6.4 12.8 19.2 19.2 25.6 32 6.4 6.4 0 12.8 6.4 19.2-12.8-6.4-19.2 0-25.6 0h44.8c-6.4-6.4-12.8-6.4-19.2-6.4 0-6.4 0-12.8 6.4-19.2 6.4-6.4 19.2-12.8 25.6-25.6 6.4-12.8 0-25.6 0-38.4h-64z m102.4-89.6c19.2 12.8 32 25.6 51.2 38.4 38.4 25.6 83.2 57.6 121.6 83.2 6.4 6.4 12.8 12.8 19.2 12.8-64 44.8-128 96-192 140.8V140.8z m38.4 76.8c0 6.4 6.4 19.2 12.8 19.2h12.8c0-6.4-6.4-12.8-6.4-12.8 0-6.4-12.8-6.4-19.2-6.4z m38.4 6.4c-6.4 6.4-6.4 6.4-6.4 12.8h12.8c6.4-6.4 6.4-6.4 6.4-12.8h-12.8z m-12.8 19.2c-19.2 0-38.4 25.6-32 44.8 0 19.2 25.6 38.4 44.8 38.4 12.8 0 19.2-6.4 32-12.8 12.8-12.8 12.8-32 6.4-44.8-12.8-19.2-32-32-51.2-25.6z m-57.6 192l192-134.4V576c-64-44.8-128-96-192-140.8z m102.4-25.6c-12.8 0-32 12.8-38.4 25.6 0 6.4 6.4 12.8 12.8 19.2 6.4 6.4 19.2 6.4 25.6 12.8 6.4 6.4 12.8 12.8 19.2 12.8v-19.2c6.4-6.4 12.8-12.8 25.6-19.2 6.4 0 12.8 12.8 19.2 12.8h6.4c0-6.4 0-12.8-6.4-19.2 0-6.4 6.4-12.8 6.4-19.2 0-6.4-6.4-6.4-12.8-6.4s-6.4 6.4-12.8 12.8c-12.8-6.4-19.2-12.8-25.6-19.2V384c-6.4 6.4-12.8 19.2-19.2 25.6zM96 300.8c64 44.8 128 89.6 185.6 134.4v6.4C224 486.4 160 531.2 96 576V300.8z m57.6 96c-6.4 0-6.4 6.4-6.4 12.8-6.4 0-6.4 6.4-12.8 6.4s-6.4 12.8-6.4 19.2v25.6c0 6.4 6.4 12.8 12.8 12.8H192c6.4 0 6.4 0 12.8-6.4s0-12.8 0-19.2c0-12.8 0-19.2-6.4-32 0-6.4-6.4-6.4-6.4-12.8-6.4-6.4-12.8-12.8-19.2-12.8-6.4 0-12.8 0-19.2 6.4z m281.6-19.2c12.8-12.8 12.8-25.6 19.2-38.4 6.4 12.8 12.8 25.6 12.8 38.4H480v12.8c6.4 0 12.8 0 25.6-6.4l-12.8-44.8c19.2 6.4 32 12.8 51.2 19.2-6.4 12.8-12.8 19.2-12.8 32 6.4 0 12.8 0 19.2-6.4h6.4c6.4-19.2 12.8-32 19.2-44.8 12.8 6.4 25.6 19.2 32 25.6l-6.4 6.4c-12.8 6.4-19.2 12.8-25.6 19.2h32c6.4 6.4 6.4 19.2 6.4 25.6h-19.2c0 12.8-6.4 19.2-6.4 32h25.6c6.4 6.4 6.4 12.8 6.4 25.6-12.8 0-19.2 0-32 6.4 0 19.2-6.4 32-6.4 51.2-6.4 0-12.8 6.4-19.2 12.8-6.4-19.2-6.4-44.8-12.8-64h-19.2c0 12.8-6.4 32-12.8 51.2 0 6.4-12.8 6.4-19.2 12.8v-64h-12.8c0-6.4-6.4-12.8-6.4-19.2-12.8 6.4-12.8 19.2-12.8 32 0 19.2-6.4 32-6.4 51.2-12.8-12.8-25.6-19.2-38.4-32l25.6-6.4c0-12.8 0-25.6-6.4-38.4-6.4 6.4-6.4 12.8-12.8 12.8-6.4-12.8-6.4-25.6-12.8-38.4 6.4 0 19.2 0 25.6-6.4 0-6.4 0-19.2-6.4-25.6h-6.4c0-6.4-6.4-19.2-12.8-25.6 6.4 0 12.8-6.4 19.2-6.4z m32 57.6h25.6c0 6.4-6.4 12.8-6.4 12.8 6.4 0 12.8 0 19.2-6.4 0-6.4-6.4-12.8-6.4-25.6-6.4 0-12.8 0-12.8-6.4-6.4 0-6.4-6.4-6.4-12.8-12.8 12.8-12.8 25.6-12.8 38.4z m70.4-12.8c0 6.4-6.4 19.2-6.4 25.6 6.4 0 19.2-6.4 25.6-6.4V416c-6.4 0-12.8 0-19.2 6.4z m-371.2-25.6c6.4 0 12.8 6.4 19.2 12.8h-32c6.4-6.4 6.4-12.8 12.8-12.8z m364.8 192c64-44.8 128-96 192-140.8v275.2c-19.2-12.8-38.4-25.6-57.6-44.8-51.2-25.6-89.6-57.6-134.4-89.6z m115.2-51.2c-6.4 6.4-6.4 6.4-6.4 12.8 6.4 0 6.4-6.4 12.8-6.4s19.2 0 25.6 6.4c0-6.4-6.4-12.8-6.4-19.2h-25.6z m6.4 19.2c-12.8 0-19.2 12.8-25.6 19.2-6.4 12.8 0 32 12.8 38.4 12.8 6.4 25.6 6.4 38.4-6.4 12.8-12.8 12.8-44.8-6.4-51.2h-19.2z m-12.8 64c0 6.4 6.4 12.8 6.4 19.2H672c0-6.4 0-12.8 6.4-19.2-12.8 6.4-25.6 6.4-38.4 0zM729.6 448c64 44.8 128 89.6 192 140.8-32 25.6-70.4 51.2-102.4 76.8-32 19.2-57.6 44.8-89.6 64V448z m64 76.8V544h6.4v-12.8c6.4-6.4 0 0-6.4-6.4z m-25.6 6.4V544h6.4s6.4-12.8-6.4-12.8z m57.6 0V544s6.4 6.4 6.4 0v-12.8h-6.4z m-64 25.6v70.4c0 6.4 6.4 6.4 6.4 6.4h70.4v-12.8c6.4 0 6.4 0 12.8-6.4s6.4-12.8 6.4-25.6c-6.4-12.8-12.8-12.8-19.2-12.8v-19.2h-76.8zM96 588.8l192-134.4v275.2c-38.4-25.6-76.8-57.6-115.2-83.2L96 588.8z m160-51.2c-6.4 6.4-12.8 12.8-12.8 19.2-6.4 12.8-12.8 32-19.2 38.4-12.8 6.4-32 6.4-44.8 19.2 12.8 12.8 32 12.8 44.8 12.8 6.4 0 12.8-12.8 12.8-19.2 0-6.4 6.4-19.2 12.8-25.6 6.4-6.4 6.4 0 6.4 0v44.8h6.4c0-12.8 0-32 6.4-44.8 0-6.4 6.4-12.8 6.4-25.6L256 537.6z m44.8-89.6c38.4 25.6 76.8 57.6 115.2 83.2l76.8 57.6-192 140.8V448z m57.6 96c-6.4 0-6.4 6.4-6.4 12.8h-19.2c-6.4 0-6.4 6.4-6.4 6.4v57.6c0 6.4 6.4 6.4 12.8 6.4h83.2c6.4 0 6.4-6.4 6.4-6.4v-57.6c-12.8-12.8-19.2-12.8-25.6-12.8-6.4 0-6.4-6.4-12.8-6.4h-32z m-44.8 198.4l192-134.4v275.2c-44.8-32-89.6-64-140.8-96-12.8-19.2-32-32-51.2-44.8z m121.6-57.6z m-38.4 25.6c-6.4 6.4-12.8 19.2-12.8 25.6h12.8c6.4 0 12.8 6.4 19.2 0h19.2v38.4c0 6.4-6.4 6.4-6.4 6.4 0-6.4-6.4-12.8-6.4-12.8l-6.4 6.4c0 6.4 6.4 19.2 12.8 19.2 6.4 6.4 19.2-6.4 19.2-12.8V736h44.8c0-6.4-6.4-19.2-12.8-25.6-6.4-6.4-12.8-6.4-12.8-12.8-25.6-12.8-51.2-6.4-70.4 12.8z m121.6-108.8l192 134.4c-64 44.8-128 96-192 140.8V601.6z m64 76.8l-6.4 6.4-19.2 19.2s6.4 6.4 12.8 0h51.2c-6.4-6.4-12.8-12.8-19.2-12.8-6.4 0-12.8-6.4-19.2-12.8z m-32 38.4V768s0 6.4 6.4 6.4h57.6c6.4-6.4 0-12.8 0-25.6v-38.4c0-6.4-6.4-6.4-6.4-6.4-19.2 12.8-38.4 12.8-57.6 12.8z" fill="#FFFFFF" p-id="5265"></path></svg>