<?xml version="1.0" standalone="no"?><!DOCTYPE svg PUBLIC "-//W3C//DTD SVG 1.1//EN" "http://www.w3.org/Graphics/SVG/1.1/DTD/svg11.dtd"><svg t="1782805967898" class="icon" viewBox="0 0 1024 1024" version="1.1" xmlns="http://www.w3.org/2000/svg" p-id="6627" xmlns:xlink="http://www.w3.org/1999/xlink" width="200" height="200"><path d="M459.904 601.152a1051.072 1051.072 0 0 1-61.056 102.4 289.6 289.6 0 0 1-88.384 94.08 16.704 16.704 0 0 1-21.824-5.696 848.832 848.832 0 0 1-89.472-239.168c-36.032-143.168-48.064-274.816-29.248-320a12.8 12.8 0 0 1 18.112-6.4c25.6 14.976 88.704 69.504 208.192 267.904 26.88 44.8 50.112 83.712 63.616 106.56z m364.8-48.128a871.616 871.616 0 0 1-88.128 236.8 19.648 19.648 0 0 1-27.008 5.888 554.88 554.88 0 0 1-145.6-194.368c13.504-22.784 36.736-61.952 64-106.752 119.744-199.104 183.04-253.312 208.256-268.224a12.224 12.224 0 0 1 17.856 6.08c18.752 45.376 6.72 177.024-29.312 320z m113.408-354.944a96.448 96.448 0 0 0-81.792-67.712c-77.632-5.76-169.024 89.216-306.496 317.44-13.824 22.912-26.688 44.416-37.824 63.04-11.072-18.56-23.872-39.936-37.824-63.04-137.408-228.416-229.184-323.328-306.432-317.44a96.448 96.448 0 0 0-81.92 67.648c-31.68 76.352-7.936 225.728 9.088 307.968a1215.616 1215.616 0 0 0 105.088 315.136c25.6 44.8 50.816 67.584 79.936 71.808a94.72 94.72 0 0 0 14.08 1.024c86.08 0 168-112.32 217.984-197.952 49.92 85.632 131.84 198.016 217.92 198.016a102.4 102.4 0 0 0 14.144-1.024c29.12-4.288 54.528-27.136 79.936-71.808a1217.728 1217.728 0 0 0 105.152-315.136c16.96-82.24 40.64-231.616 9.152-307.968z" fill="#FA9D3B" p-id="6628"></path></svg>